<svg width="103" height="103" viewBox="0 0 103 103" fill="none" xmlns="http://www.w3.org/2000/svg">
<circle cx="51.5" cy="51.5" r="51.5" fill="#00A651"/>
<g filter="url(#filter0_d_55_116)">
<path d="M46.5781 57.4141C46.5781 59.638 45.7943 61.5521 44.2266 63.1562C41.9297 65.4167 38.6849 66.5469 34.4922 66.5469C30.9193 66.5469 27.7292 65.6172 24.9219 63.7578C24.9219 64.5234 24.8854 65.0521 24.8125 65.3438C24.6667 65.8542 24.1562 66.1094 23.2812 66.1094V54.7891H24.9219C25.5417 61.5339 28.6406 64.9427 34.2188 65.0156C35.6406 65.0156 36.9349 64.7604 38.1016 64.25C40.5807 63.1198 41.8203 61.2786 41.8203 58.7266C41.8203 57.7422 41.5833 56.8307 41.1094 55.9922C40.2344 54.4974 38.1562 53.0208 34.875 51.5625C31.3385 50.0312 29.2604 49.1016 28.6406 48.7734C25.2135 46.8411 23.5 44.3438 23.5 41.2812C23.5 39.2396 24.2292 37.4531 25.6875 35.9219C27.875 33.7344 30.9375 32.6406 34.875 32.6406C38.1198 32.6406 41.0365 33.3516 43.625 34.7734C43.625 34.3359 43.6615 33.9896 43.7344 33.7344C43.8802 33.1875 44.3906 32.9141 45.2656 32.9141V42.4844H43.625C43.6615 40.4427 43.151 38.7109 42.0938 37.2891C40.4896 35.2109 38.1562 34.1719 35.0938 34.1719C33.8542 34.1719 32.724 34.3724 31.7031 34.7734C29.3333 35.7214 28.1484 37.4167 28.1484 39.8594C28.1484 40.7708 28.3672 41.6276 28.8047 42.4297C29.6432 43.888 31.6849 45.3099 34.9297 46.6953C38.5026 48.263 40.6354 49.2292 41.3281 49.5938C44.8281 51.5625 46.5781 54.1693 46.5781 57.4141Z" fill="white"/>
<path d="M70.8281 66H55.1875V64.5781H59.5625V34.6094H55.1875V33.1875H80.3984L80.6719 43.0312H79.5781L78.8125 40.4609C78.776 40.3151 78.7214 40.1328 78.6484 39.9141C77.5182 36.3776 75.6406 34.6094 73.0156 34.6094H64.2656V48.2812H75.5312V49.8672H64.2656V64.5781H70.8281V66Z" fill="white"/>
</g>
<defs>
<filter id="filter0_d_55_116" x="19.2812" y="32.6406" width="65.3906" height="41.9062" filterUnits="userSpaceOnUse" color-interpolation-filters="sRGB">
<feFlood flood-opacity="0" result="BackgroundImageFix"/>
<feColorMatrix in="SourceAlpha" type="matrix" values="0 0 0 0 0 0 0 0 0 0 0 0 0 0 0 0 0 0 127 0" result="hardAlpha"/>
<feOffset dy="4"/>
<feGaussianBlur stdDeviation="2"/>
<feComposite in2="hardAlpha" operator="out"/>
<feColorMatrix type="matrix" values="0 0 0 0 0 0 0 0 0 0 0 0 0 0 0 0 0 0 0.25 0"/>
<feBlend mode="normal" in2="BackgroundImageFix" result="effect1_dropShadow_55_116"/>
<feBlend mode="normal" in="SourceGraphic" in2="effect1_dropShadow_55_116" result="shape"/>
</filter>
</defs>
</svg>
