<svg width="20" height="20" viewBox="0 0 500 500" fill="none" xmlns="http://www.w3.org/2000/svg">
<g clip-path="url(#clip0_576_662)">
<path d="M233.993 142.778C256.017 142.778 273.872 124.541 273.872 102.044C273.872 79.5477 256.017 61.3105 233.993 61.3105C211.969 61.3105 194.114 79.5477 194.114 102.044C194.114 124.541 211.969 142.778 233.993 142.778Z" fill="url(#paint0_linear_576_662)"/>
<path d="M459.323 231.333C455.364 178.201 433.846 128.02 398.298 89.0195C374.85 63.2471 346.101 43.1029 314.12 30.036C282.139 16.9691 247.721 11.3043 213.34 13.4489C171.427 16.0111 130.997 30.2256 96.4201 54.5559C84.819 62.9032 73.9168 72.2204 63.8258 82.4113C56.3198 90.0849 49.3369 98.2743 42.926 106.922L42.7185 107.931C42.3504 109.767 42.4902 111.672 43.1223 113.431C43.7544 115.19 44.8538 116.735 46.2972 117.892C47.7407 119.049 49.4711 119.773 51.2945 119.981C53.1179 120.19 54.9621 119.876 56.6205 119.074L57.8206 118.524C69.0617 103.585 82.0306 90.0886 96.4449 78.3303C139.904 43.7861 196.174 25.8279 256.671 33.9394C352.103 46.7522 427.544 124.159 439.619 221.698C456.074 354.463 354.676 467.992 227.879 467.992C177.694 467.992 131.662 450.206 94.9435 420.479C80.3594 408.388 67.3023 394.494 56.0723 379.115L55.1488 378.661C53.4903 377.857 51.6454 377.542 49.8212 377.75C47.997 377.958 46.2656 378.682 44.8214 379.839C43.3772 380.996 42.2773 382.542 41.645 384.302C41.0127 386.062 40.8731 387.967 41.2419 389.804L41.4987 391.045C54.5867 409.043 70.0607 425.095 87.4765 438.74C89.9457 440.687 92.6965 442.574 94.9435 444.41C126.417 466.721 162.157 480.831 199.922 485.32C268.938 493.517 335.47 471.165 385.186 424.282C410.99 399.914 431.062 369.9 443.901 336.485C456.74 303.071 462.012 267.123 459.323 231.333Z" fill="#2257A3"/>
<path d="M359.135 385.879C340.236 401.976 315.938 412.035 289.463 412.035C286.83 412.035 284.218 412.105 281.63 412.105C271.753 407.565 262.153 408.362 252.833 405.548C247.401 403.918 242.122 401.88 236.931 399.777C167.876 371.826 119.059 302.833 119.059 222.465C119.059 166.689 142.857 116.391 180.321 81.5135C186.055 75.9646 199.339 67.1267 199.339 67.1267C201.359 64.428 199.473 62.0268 196.149 62.0268H196.1C190.77 61.9574 185.457 62.671 180.326 64.1455C151.105 72.2569 125.093 86.6084 102.84 107.724C83.1544 126.356 67.6002 149.076 57.2226 174.357C46.845 199.637 41.8845 226.894 42.6742 254.295C44.1558 303.337 63.5099 349.05 97.6302 383.902C133.153 420.186 180.361 440.082 230.595 440.082C264.295 440.151 297.387 430.913 326.368 413.346C327.405 412.716 328.428 412.05 329.455 411.404C340.85 404.166 351.46 395.711 361.106 386.182C362.173 385.254 363.215 384.295 364.247 383.327C364.385 383.019 364.518 382.711 364.676 382.419C365.16 381.566 360.577 384.482 359.135 385.879Z" fill="url(#paint1_linear_576_662)"/>
<path d="M378.44 285.076H376.529H315.355C317.242 285.506 319.101 286.055 320.921 286.721C324.2 287.911 329.267 289.838 334.285 294.61C338.655 298.787 341.863 304.071 343.584 309.925C344.515 313.189 344.992 316.57 345.001 319.969C345.097 322.461 344.91 324.956 344.443 327.404C343.866 330.325 342.651 334.098 342.651 334.098C341.603 336.262 340.449 338.369 339.194 340.414C331.978 352.167 322.294 360.501 312.728 366.383C302.011 372.88 290.257 377.398 278.005 379.73C264.493 382.172 253.91 381.032 245.821 380.179C231.162 378.626 216.839 374.699 203.389 368.547L203.349 368.491C202.381 368.054 201.422 367.603 200.47 367.139C176.493 355.503 156.24 337.155 142.067 314.228C140.378 311.101 138.776 307.923 137.262 304.694C137.805 306.359 138.645 308.8 139.8 311.691C148.621 333.826 161.866 347.471 172.513 358.226C172.513 358.226 200.144 385.324 231.163 398.949C238.433 402.141 245.893 404.857 253.5 407.081C262.493 410.25 271.851 412.214 281.339 412.922C284.025 413.124 286.737 413.227 289.472 413.23C292.608 413.23 295.715 413.084 298.787 412.822C292.999 412.615 293.167 412.549 298.787 412.756C339.075 414.219 373.082 383.786 389.483 348.142C390.47 346.013 391.387 343.847 392.234 341.645C394.192 335.945 395.194 329.949 395.197 323.908C395.195 316.602 393.705 309.376 390.82 302.691C387.935 296.005 383.719 290.006 378.44 285.076Z" fill="url(#paint2_linear_576_662)"/>
<path d="M377.635 284.375C373.69 280.937 369.262 278.123 364.499 276.027L364.385 275.971C357.938 273.164 351.002 271.716 343.994 271.714H256.088C251.752 271.714 248.013 274.534 248.013 277.944V279.376C248.013 282.786 251.752 285.505 256.088 285.505H376.998H378.904C378.48 285.132 378.06 284.754 377.635 284.375Z" fill="url(#paint3_linear_576_662)"/>
</g>
<defs>
<linearGradient id="paint0_linear_576_662" x1="214.051" y1="66.7585" x2="255.222" y2="136.569" gradientUnits="userSpaceOnUse">
<stop stop-color="#2E4D9C"/>
<stop offset="0.17" stop-color="#2656A3"/>
<stop offset="0.44" stop-color="#1270B7"/>
<stop offset="0.49" stop-color="#0E75BB"/>
<stop offset="0.88" stop-color="#64B4D8"/>
</linearGradient>
<linearGradient id="paint1_linear_576_662" x1="334.616" y1="413.609" x2="63.2761" y2="147.96" gradientUnits="userSpaceOnUse">
<stop stop-color="#2E4D9C"/>
<stop offset="0.19" stop-color="#205FAA"/>
<stop offset="0.43" stop-color="#136FB7"/>
<stop offset="0.62" stop-color="#0E75BB"/>
<stop offset="0.96" stop-color="#5CAED5"/>
<stop offset="0.99" stop-color="#64B4D8"/>
</linearGradient>
<linearGradient id="paint2_linear_576_662" x1="395.172" y1="349.136" x2="137.252" y2="349.136" gradientUnits="userSpaceOnUse">
<stop stop-color="#2E4D9C"/>
<stop offset="0.17" stop-color="#2A52A0"/>
<stop offset="0.36" stop-color="#1F60AB"/>
<stop offset="0.55" stop-color="#0E75BB"/>
<stop offset="0.94" stop-color="#64B4D8"/>
</linearGradient>
<linearGradient id="paint3_linear_576_662" x1="347.179" y1="317.911" x2="275.539" y2="247.775" gradientUnits="userSpaceOnUse">
<stop stop-color="#2E4D9C"/>
<stop offset="0.17" stop-color="#2656A3"/>
<stop offset="0.44" stop-color="#1270B7"/>
<stop offset="0.49" stop-color="#0E75BB"/>
<stop offset="0.88" stop-color="#64B4D8"/>
</linearGradient>
<clipPath id="clip0_576_662">
<rect width="419" height="474" fill="white" transform="translate(41 13)"/>
</clipPath>
</defs>
</svg>
