<svg width="591" height="103" viewBox="0 0 591 103" fill="none" xmlns="http://www.w3.org/2000/svg">
<circle cx="51.5" cy="51.5" r="51.5" fill="#00A651"/>
<g filter="url(#filter0_d_55_84)">
<path d="M46.5781 57.4141C46.5781 59.638 45.7943 61.5521 44.2266 63.1562C41.9297 65.4167 38.6849 66.5469 34.4922 66.5469C30.9193 66.5469 27.7292 65.6172 24.9219 63.7578C24.9219 64.5234 24.8854 65.0521 24.8125 65.3438C24.6667 65.8542 24.1562 66.1094 23.2812 66.1094V54.7891H24.9219C25.5417 61.5339 28.6406 64.9427 34.2188 65.0156C35.6406 65.0156 36.9349 64.7604 38.1016 64.25C40.5807 63.1198 41.8203 61.2786 41.8203 58.7266C41.8203 57.7422 41.5833 56.8307 41.1094 55.9922C40.2344 54.4974 38.1562 53.0208 34.875 51.5625C31.3385 50.0312 29.2604 49.1016 28.6406 48.7734C25.2135 46.8411 23.5 44.3438 23.5 41.2812C23.5 39.2396 24.2292 37.4531 25.6875 35.9219C27.875 33.7344 30.9375 32.6406 34.875 32.6406C38.1198 32.6406 41.0365 33.3516 43.625 34.7734C43.625 34.3359 43.6615 33.9896 43.7344 33.7344C43.8802 33.1875 44.3906 32.9141 45.2656 32.9141V42.4844H43.625C43.6615 40.4427 43.151 38.7109 42.0938 37.2891C40.4896 35.2109 38.1562 34.1719 35.0938 34.1719C33.8542 34.1719 32.724 34.3724 31.7031 34.7734C29.3333 35.7214 28.1484 37.4167 28.1484 39.8594C28.1484 40.7708 28.3672 41.6276 28.8047 42.4297C29.6432 43.888 31.6849 45.3099 34.9297 46.6953C38.5026 48.263 40.6354 49.2292 41.3281 49.5938C44.8281 51.5625 46.5781 54.1693 46.5781 57.4141Z" fill="white"/>
<path d="M70.8281 66H55.1875V64.5781H59.5625V34.6094H55.1875V33.1875H80.3984L80.6719 43.0312H79.5781L78.8125 40.4609C78.776 40.3151 78.7214 40.1328 78.6484 39.9141C77.5182 36.3776 75.6406 34.6094 73.0156 34.6094H64.2656V48.2812H75.5312V49.8672H64.2656V64.5781H70.8281V66Z" fill="white"/>
</g>
<mask id="path-4-inside-1_55_84" fill="white">
<path d="M117 6.54688H590.314V64.4531H117V6.54688Z"/>
</mask>
<path d="M117 6.54688V7.54688H590.314V6.54688V5.54688H117V6.54688ZM590.314 64.4531V63.4531H117V64.4531V65.4531H590.314V64.4531Z" fill="white" mask="url(#path-4-inside-1_55_84)"/>
<path d="M248.766 51.9062H238.219V50.6367H241.393L237.73 41.1641H227.525L223.863 50.6367H226.256C226.419 50.6367 226.581 50.653 226.744 50.6855C227.265 50.7832 227.525 51.1901 227.525 51.9062H218.834V50.6367H221.91L232.848 22.6094H234.654L245.836 50.6367H247.496C247.659 50.6367 247.822 50.653 247.984 50.6855C248.505 50.7832 248.766 51.1901 248.766 51.9062ZM237.193 39.748L232.604 27.9316L228.062 39.748H237.193Z" fill="white"/>
<path d="M206.334 52.1504H205.748C205.227 52.1504 204.804 52.0527 204.479 51.8574C203.958 51.5645 203.339 50.4577 202.623 48.5371L193.346 23.8789H190.416V22.6094H201.451V23.8789H197.545L206.383 46.9258L214.537 23.8789H210.631V22.6094H218.834V23.8789H216.393L206.334 52.1504Z" fill="white"/>
<path d="M189.928 51.9062H168.541V50.6367H172.447V23.8789H168.541V22.6094H180.748V23.8789H176.646V50.6367H183.336C183.694 50.6367 184.068 50.6042 184.459 50.5391C186.282 50.1159 187.584 48.4069 188.365 45.4121L189.195 42.1406H190.172L189.928 51.9062Z" fill="white"/>
<path d="M164.635 51.9062H152.672V50.6367H156.578V23.8789H152.672V22.6094H164.635V23.8789H160.777V50.6367H163.365C163.528 50.6367 163.691 50.653 163.854 50.6855C164.374 50.7832 164.635 51.1901 164.635 51.9062Z" fill="white"/>
<path d="M148.297 43.3203C148.297 45.5443 147.513 47.4583 145.945 49.0625C143.648 51.3229 140.404 52.4531 136.211 52.4531C132.638 52.4531 129.448 51.5234 126.641 49.6641C126.641 50.4297 126.604 50.9583 126.531 51.25C126.385 51.7604 125.875 52.0156 125 52.0156V40.6953H126.641C127.26 47.4401 130.359 50.849 135.938 50.9219C137.359 50.9219 138.654 50.6667 139.82 50.1562C142.299 49.026 143.539 47.1849 143.539 44.6328C143.539 43.6484 143.302 42.737 142.828 41.8984C141.953 40.4036 139.875 38.9271 136.594 37.4688C133.057 35.9375 130.979 35.0078 130.359 34.6797C126.932 32.7474 125.219 30.25 125.219 27.1875C125.219 25.1458 125.948 23.3594 127.406 21.8281C129.594 19.6406 132.656 18.5469 136.594 18.5469C139.839 18.5469 142.755 19.2578 145.344 20.6797C145.344 20.2422 145.38 19.8958 145.453 19.6406C145.599 19.0938 146.109 18.8203 146.984 18.8203V28.3906H145.344C145.38 26.349 144.87 24.6172 143.812 23.1953C142.208 21.1172 139.875 20.0781 136.812 20.0781C135.573 20.0781 134.443 20.2786 133.422 20.6797C131.052 21.6276 129.867 23.3229 129.867 25.7656C129.867 26.6771 130.086 27.5339 130.523 28.3359C131.362 29.7943 133.404 31.2161 136.648 32.6016C140.221 34.1693 142.354 35.1354 143.047 35.5C146.547 37.4688 148.297 40.0755 148.297 43.3203Z" fill="white"/>
<path d="M494.32 51.6621H472.934V50.3926H476.84V23.6348H472.934V22.3652H485.141V23.6348H481.039V50.3926H487.729C488.087 50.3926 488.461 50.36 488.852 50.2949C490.674 49.8717 491.977 48.1628 492.758 45.168L493.588 41.8965H494.564L494.32 51.6621Z" fill="white"/>
<path d="M470.98 51.6621H460.434V50.3926H463.607L459.945 40.9199H449.74L446.078 50.3926H448.471C448.633 50.3926 448.796 50.4089 448.959 50.4414C449.48 50.5391 449.74 50.946 449.74 51.6621H441.049V50.3926H444.125L455.062 22.3652H456.869L468.051 50.3926H469.711C469.874 50.3926 470.036 50.4089 470.199 50.4414C470.72 50.5391 470.98 50.946 470.98 51.6621ZM459.408 39.5039L454.818 27.6875L450.277 39.5039H459.408Z" fill="white"/>
<path d="M439.096 51.6621H427.133V50.3926H431.039V23.6348H427.133V22.3652H439.096V23.6348H435.238V50.3926H437.826C437.989 50.3926 438.152 50.4089 438.314 50.4414C438.835 50.5391 439.096 50.946 439.096 51.6621Z" fill="white"/>
<path d="M421.469 49.416C418.474 51.2064 415.333 52.1178 412.045 52.1504C407.553 52.1504 403.907 50.653 401.107 47.6582C398.471 44.7611 397.152 41.1803 397.152 36.916C397.152 33.4004 398.096 30.2917 399.984 27.5898C402.719 23.7812 406.658 21.877 411.801 21.877C413.363 21.877 414.893 22.056 416.391 22.4141C418.669 23 420.281 23.765 421.225 24.709C421.225 23.8301 421.273 23.1953 421.371 22.8047C421.534 22.349 421.973 22.1211 422.689 22.1211L422.836 31.1055H421.664C421.436 30.3893 421.16 29.6895 420.834 29.0059C419.011 25.1647 416.065 23.2441 411.996 23.2441C410.206 23.2441 408.578 23.6999 407.113 24.6113C403.76 26.7923 402.084 30.9264 402.084 37.0137C402.084 39.8457 402.458 42.3034 403.207 44.3867C404.737 48.651 407.618 50.7832 411.85 50.7832C416.83 50.7507 420.15 48.0488 421.811 42.6777H422.982V51.9062C422.592 51.9062 422.283 51.8574 422.055 51.7598C421.664 51.5645 421.469 50.7832 421.469 49.416Z" fill="white"/>
<path d="M384.213 23.6348V22.3652H394.223V23.6348H390.316V51.418L388.07 51.9062L368.881 27.7852V50.3926H371.762C371.924 50.3926 372.087 50.4089 372.25 50.4414C372.771 50.5391 373.031 50.946 373.031 51.6621H363.021V50.3926H366.928V23.6348H363.021V22.3652H369.809L388.363 45.5098V23.6348H384.213Z" fill="white"/>
<path d="M362.045 51.6621H351.498V50.3926H354.672L351.01 40.9199H340.805L337.143 50.3926H339.535C339.698 50.3926 339.861 50.4089 340.023 50.4414C340.544 50.5391 340.805 50.946 340.805 51.6621H332.113V50.3926H335.189L346.127 22.3652H347.934L359.115 50.3926H360.775C360.938 50.3926 361.101 50.4089 361.264 50.4414C361.785 50.5391 362.045 50.946 362.045 51.6621ZM350.473 39.5039L345.883 27.6875L341.342 39.5039H350.473Z" fill="white"/>
<path d="M321.615 23.6348V22.3652H331.625V23.6348H327.719V51.418L325.473 51.9062L306.283 27.7852V50.3926H309.164C309.327 50.3926 309.49 50.4089 309.652 50.4414C310.173 50.5391 310.434 50.946 310.434 51.6621H300.424V50.3926H304.33V23.6348H300.424V22.3652H307.211L325.766 45.5098V23.6348H321.615Z" fill="white"/>
<path d="M297.494 51.6621H285.531V50.3926H289.438V23.6348H285.531V22.3652H297.494V23.6348H293.637V50.3926H296.225C296.387 50.3926 296.55 50.4089 296.713 50.4414C297.234 50.5391 297.494 50.946 297.494 51.6621Z" fill="white"/>
<path d="M273.406 51.6621H257.766V50.2402H262.141V20.2715H257.766V18.8496H282.977L283.25 28.6934H282.156L281.391 26.123C281.354 25.9772 281.299 25.7949 281.227 25.5762C280.096 22.0397 278.219 20.2715 275.594 20.2715H266.844V33.9434H278.109V35.5293H266.844V50.2402H273.406V51.6621Z" fill="white"/>
<path d="M578.801 49.416C575.806 51.2064 572.665 52.1178 569.377 52.1504C564.885 52.1504 561.239 50.653 558.439 47.6582C555.803 44.7611 554.484 41.1803 554.484 36.916C554.484 33.4004 555.428 30.2917 557.316 27.5898C560.051 23.7812 563.99 21.877 569.133 21.877C570.695 21.877 572.225 22.056 573.723 22.4141C576.001 23 577.613 23.765 578.557 24.709C578.557 23.8301 578.605 23.1953 578.703 22.8047C578.866 22.349 579.305 22.1211 580.021 22.1211L580.168 31.1055H578.996C578.768 30.3893 578.492 29.6895 578.166 29.0059C576.343 25.1647 573.397 23.2441 569.328 23.2441C567.538 23.2441 565.91 23.6999 564.445 24.6113C561.092 26.7923 559.416 30.9264 559.416 37.0137C559.416 39.8457 559.79 42.3034 560.539 44.3867C562.069 48.651 564.95 50.7832 569.182 50.7832C574.162 50.7507 577.482 48.0488 579.143 42.6777H580.314V51.9062C579.924 51.9062 579.615 51.8574 579.387 51.7598C578.996 51.5645 578.801 50.7832 578.801 49.416Z" fill="white"/>
<path d="M541.545 23.6348V22.3652H551.555V23.6348H547.648V51.418L545.402 51.9062L526.213 27.7852V50.3926H529.094C529.257 50.3926 529.419 50.4089 529.582 50.4414C530.103 50.5391 530.363 50.946 530.363 51.6621H520.354V50.3926H524.26V23.6348H520.354V22.3652H527.141L545.695 45.5098V23.6348H541.545Z" fill="white"/>
<path d="M516.963 51.6621H503.564V50.2402H507.939V20.2715H503.564V18.8496H516.963V20.2715H512.643V50.2402H515.541C515.723 50.2402 515.906 50.2585 516.088 50.2949C516.671 50.4043 516.963 50.86 516.963 51.6621Z" fill="white"/>
<path d="M118.761 91.4531V76.9077H123.847C124.86 76.9077 125.696 77.0829 126.354 77.4332C127.012 77.7789 127.502 78.2453 127.824 78.8324C128.146 79.4148 128.307 80.0611 128.307 80.7713C128.307 81.3963 128.196 81.9124 127.973 82.3196C127.755 82.7268 127.466 83.0488 127.107 83.2855C126.751 83.5223 126.366 83.6974 125.949 83.8111V83.9531C126.394 83.9815 126.841 84.1378 127.291 84.4219C127.741 84.706 128.117 85.1132 128.42 85.6435C128.723 86.1738 128.875 86.8224 128.875 87.5895C128.875 88.3187 128.709 88.9744 128.378 89.5568C128.046 90.1392 127.523 90.6009 126.808 90.9418C126.093 91.2827 125.163 91.4531 124.017 91.4531H118.761ZM120.523 89.8906H124.017C125.168 89.8906 125.984 89.6681 126.467 89.223C126.955 88.7732 127.199 88.2287 127.199 87.5895C127.199 87.0971 127.073 86.6425 126.822 86.2259C126.571 85.8045 126.214 85.4683 125.75 85.2173C125.286 84.9616 124.737 84.8338 124.102 84.8338H120.523V89.8906ZM120.523 83.2997H123.79C124.32 83.2997 124.798 83.1955 125.224 82.9872C125.655 82.7789 125.996 82.4853 126.247 82.1065C126.503 81.7277 126.631 81.2827 126.631 80.7713C126.631 80.1321 126.408 79.59 125.963 79.1449C125.518 78.6951 124.813 78.4702 123.847 78.4702H120.523V83.2997ZM135.974 91.6804C134.989 91.6804 134.125 91.446 133.381 90.9773C132.643 90.5085 132.065 89.8527 131.648 89.0099C131.237 88.1671 131.031 87.1823 131.031 86.0554C131.031 84.919 131.237 83.9271 131.648 83.0795C132.065 82.232 132.643 81.5739 133.381 81.1051C134.125 80.6364 134.989 80.402 135.974 80.402C136.959 80.402 137.82 80.6364 138.559 81.1051C139.302 81.5739 139.88 82.232 140.292 83.0795C140.709 83.9271 140.917 84.919 140.917 86.0554C140.917 87.1823 140.709 88.1671 140.292 89.0099C139.88 89.8527 139.302 90.5085 138.559 90.9773C137.82 91.446 136.959 91.6804 135.974 91.6804ZM135.974 90.1747C136.722 90.1747 137.337 89.983 137.82 89.5994C138.303 89.2159 138.661 88.7116 138.893 88.0866C139.125 87.4616 139.241 86.7846 139.241 86.0554C139.241 85.3262 139.125 84.6468 138.893 84.017C138.661 83.3873 138.303 82.8783 137.82 82.4901C137.337 82.1018 136.722 81.9077 135.974 81.9077C135.226 81.9077 134.61 82.1018 134.127 82.4901C133.644 82.8783 133.287 83.3873 133.055 84.017C132.823 84.6468 132.707 85.3262 132.707 86.0554C132.707 86.7846 132.823 87.4616 133.055 88.0866C133.287 88.7116 133.644 89.2159 134.127 89.5994C134.61 89.983 135.226 90.1747 135.974 90.1747ZM147.907 91.6804C146.922 91.6804 146.058 91.446 145.315 90.9773C144.576 90.5085 143.999 89.8527 143.582 89.0099C143.17 88.1671 142.964 87.1823 142.964 86.0554C142.964 84.919 143.17 83.9271 143.582 83.0795C143.999 82.232 144.576 81.5739 145.315 81.1051C146.058 80.6364 146.922 80.402 147.907 80.402C148.892 80.402 149.754 80.6364 150.493 81.1051C151.236 81.5739 151.814 82.232 152.225 83.0795C152.642 83.9271 152.85 84.919 152.85 86.0554C152.85 87.1823 152.642 88.1671 152.225 89.0099C151.814 89.8527 151.236 90.5085 150.493 90.9773C149.754 91.446 148.892 91.6804 147.907 91.6804ZM147.907 90.1747C148.655 90.1747 149.271 89.983 149.754 89.5994C150.237 89.2159 150.594 88.7116 150.826 88.0866C151.058 87.4616 151.174 86.7846 151.174 86.0554C151.174 85.3262 151.058 84.6468 150.826 84.017C150.594 83.3873 150.237 82.8783 149.754 82.4901C149.271 82.1018 148.655 81.9077 147.907 81.9077C147.159 81.9077 146.544 82.1018 146.061 82.4901C145.578 82.8783 145.22 83.3873 144.988 84.017C144.756 84.6468 144.64 85.3262 144.64 86.0554C144.64 86.7846 144.756 87.4616 144.988 88.0866C145.22 88.7116 145.578 89.2159 146.061 89.5994C146.544 89.983 147.159 90.1747 147.907 90.1747ZM156.972 87.4759L156.943 85.402H157.284L162.057 80.544H164.131L159.045 85.6861H158.903L156.972 87.4759ZM155.409 91.4531V76.9077H157.085V91.4531H155.409ZM162.341 91.4531L158.08 86.0554L159.273 84.8906L164.472 91.4531H162.341ZM167.85 87.4759L167.822 85.402H168.163L172.936 80.544H175.01L169.924 85.6861H169.782L167.85 87.4759ZM166.288 91.4531V76.9077H167.964V91.4531H166.288ZM173.22 91.4531L168.958 86.0554L170.152 84.8906L175.35 91.4531H173.22ZM181.292 91.6804C180.24 91.6804 179.334 91.4484 178.571 90.9844C177.814 90.5156 177.229 89.8622 176.817 89.0241C176.41 88.1813 176.206 87.2012 176.206 86.0838C176.206 84.9664 176.41 83.9815 176.817 83.1293C177.229 82.2723 177.802 81.6046 178.536 81.1264C179.275 80.6435 180.136 80.402 181.121 80.402C181.689 80.402 182.25 80.4967 182.804 80.6861C183.358 80.8755 183.863 81.1832 184.317 81.6094C184.772 82.0308 185.134 82.5895 185.404 83.2855C185.674 83.9815 185.809 84.8385 185.809 85.8565V86.5668H177.4V85.1179H184.104C184.104 84.5024 183.981 83.9531 183.735 83.4702C183.493 82.9872 183.148 82.6061 182.698 82.3267C182.253 82.0473 181.727 81.9077 181.121 81.9077C180.453 81.9077 179.876 82.0734 179.388 82.4048C178.905 82.7315 178.533 83.1577 178.273 83.6832C178.013 84.2088 177.882 84.7723 177.882 85.3736V86.3395C177.882 87.1634 178.025 87.8617 178.309 88.4347C178.597 89.0028 178.998 89.4361 179.509 89.7344C180.02 90.0279 180.614 90.1747 181.292 90.1747C181.732 90.1747 182.13 90.1132 182.485 89.9901C182.845 89.8622 183.155 89.6728 183.415 89.4219C183.676 89.1662 183.877 88.849 184.019 88.4702L185.638 88.9247C185.468 89.474 185.181 89.9569 184.779 90.3736C184.376 90.7855 183.879 91.1075 183.287 91.3395C182.695 91.5668 182.03 91.6804 181.292 91.6804ZM192.932 91.6804C191.881 91.6804 190.974 91.4484 190.212 90.9844C189.454 90.5156 188.87 89.8622 188.458 89.0241C188.051 88.1813 187.847 87.2012 187.847 86.0838C187.847 84.9664 188.051 83.9815 188.458 83.1293C188.87 82.2723 189.443 81.6046 190.176 81.1264C190.915 80.6435 191.777 80.402 192.762 80.402C193.33 80.402 193.891 80.4967 194.445 80.6861C194.999 80.8755 195.503 81.1832 195.958 81.6094C196.412 82.0308 196.775 82.5895 197.044 83.2855C197.314 83.9815 197.449 84.8385 197.449 85.8565V86.5668H189.04V85.1179H195.745C195.745 84.5024 195.622 83.9531 195.375 83.4702C195.134 82.9872 194.788 82.6061 194.338 82.3267C193.893 82.0473 193.368 81.9077 192.762 81.9077C192.094 81.9077 191.516 82.0734 191.029 82.4048C190.546 82.7315 190.174 83.1577 189.914 83.6832C189.653 84.2088 189.523 84.7723 189.523 85.3736V86.3395C189.523 87.1634 189.665 87.8617 189.949 88.4347C190.238 89.0028 190.638 89.4361 191.15 89.7344C191.661 90.0279 192.255 90.1747 192.932 90.1747C193.373 90.1747 193.77 90.1132 194.125 89.9901C194.485 89.8622 194.795 89.6728 195.056 89.4219C195.316 89.1662 195.517 88.849 195.659 88.4702L197.279 88.9247C197.108 89.474 196.822 89.9569 196.419 90.3736C196.017 90.7855 195.52 91.1075 194.928 91.3395C194.336 91.5668 193.671 91.6804 192.932 91.6804ZM199.999 95.544V80.544H201.618V82.277H201.817C201.94 82.0876 202.111 81.8461 202.328 81.5526C202.551 81.2543 202.868 80.9891 203.28 80.7571C203.697 80.5204 204.26 80.402 204.971 80.402C205.889 80.402 206.699 80.6316 207.4 81.0909C208.1 81.5502 208.647 82.2012 209.04 83.044C209.433 83.8868 209.63 84.8812 209.63 86.027C209.63 87.1823 209.433 88.1837 209.04 89.0312C208.647 89.8741 208.103 90.5275 207.407 90.9915C206.711 91.4508 205.908 91.6804 204.999 91.6804C204.298 91.6804 203.737 91.5644 203.316 91.3324C202.894 91.0956 202.57 90.8281 202.343 90.5298C202.115 90.2268 201.94 89.9759 201.817 89.777H201.675V95.544H199.999ZM201.647 85.9986C201.647 86.8224 201.767 87.5492 202.009 88.179C202.25 88.804 202.603 89.294 203.067 89.6491C203.531 89.9995 204.099 90.1747 204.772 90.1747C205.472 90.1747 206.057 89.9901 206.526 89.6207C206.999 89.2467 207.355 88.7448 207.591 88.1151C207.833 87.4806 207.953 86.7751 207.953 85.9986C207.953 85.2315 207.835 84.5402 207.598 83.9247C207.366 83.3045 207.014 82.8144 206.54 82.4545C206.071 82.09 205.482 81.9077 204.772 81.9077C204.09 81.9077 203.517 82.0805 203.053 82.4261C202.589 82.767 202.239 83.2453 202.002 83.8608C201.765 84.4716 201.647 85.1842 201.647 85.9986ZM212.186 91.4531V80.544H213.863V91.4531H212.186ZM213.039 78.7259C212.712 78.7259 212.43 78.6146 212.194 78.392C211.962 78.1695 211.846 77.902 211.846 77.5895C211.846 77.277 211.962 77.0095 212.194 76.7869C212.43 76.5644 212.712 76.4531 213.039 76.4531C213.365 76.4531 213.645 76.5644 213.877 76.7869C214.114 77.0095 214.232 77.277 214.232 77.5895C214.232 77.902 214.114 78.1695 213.877 78.392C213.645 78.6146 213.365 78.7259 213.039 78.7259ZM218.609 84.8906V91.4531H216.933V80.544H218.552V82.2486H218.694C218.95 81.6946 219.338 81.2495 219.859 80.9134C220.379 80.5724 221.052 80.402 221.876 80.402C222.614 80.402 223.261 80.5535 223.815 80.8565C224.369 81.1548 224.799 81.6094 225.107 82.2202C225.415 82.8262 225.569 83.5933 225.569 84.5213V91.4531H223.893V84.6349C223.893 83.7779 223.67 83.1103 223.225 82.6321C222.78 82.1491 222.169 81.9077 221.393 81.9077C220.858 81.9077 220.379 82.0237 219.958 82.2557C219.541 82.4877 219.212 82.8262 218.971 83.2713C218.729 83.7164 218.609 84.2562 218.609 84.8906ZM233.035 95.7713C232.225 95.7713 231.529 95.6671 230.947 95.4588C230.365 95.2552 229.879 94.9853 229.491 94.6491C229.108 94.3177 228.802 93.9626 228.575 93.5838L229.91 92.6463C230.062 92.8452 230.253 93.0724 230.485 93.3281C230.717 93.5885 231.035 93.8134 231.437 94.0028C231.844 94.197 232.377 94.294 233.035 94.294C233.916 94.294 234.643 94.081 235.216 93.6548C235.788 93.2287 236.075 92.5611 236.075 91.652V89.4361H235.933C235.81 89.6349 235.635 89.8812 235.407 90.1747C235.185 90.4635 234.863 90.7216 234.441 90.9489C234.025 91.1714 233.461 91.2827 232.751 91.2827C231.87 91.2827 231.08 91.0743 230.379 90.6577C229.683 90.241 229.131 89.6349 228.724 88.8395C228.322 88.044 228.12 87.0781 228.12 85.9418C228.12 84.8243 228.317 83.8513 228.71 83.0227C229.103 82.1894 229.65 81.5455 230.35 81.0909C231.051 80.6316 231.861 80.402 232.779 80.402C233.49 80.402 234.053 80.5204 234.47 80.7571C234.891 80.9891 235.213 81.2543 235.436 81.5526C235.663 81.8461 235.838 82.0876 235.961 82.277H236.132V80.544H237.751V91.7656C237.751 92.7031 237.538 93.4654 237.112 94.0526C236.69 94.6444 236.122 95.0777 235.407 95.3523C234.697 95.6316 233.906 95.7713 233.035 95.7713ZM232.978 89.777C233.651 89.777 234.219 89.6231 234.683 89.3153C235.147 89.0076 235.5 88.5649 235.741 87.9872C235.983 87.4096 236.103 86.7183 236.103 85.9134C236.103 85.1274 235.985 84.4337 235.748 83.8324C235.511 83.2311 235.161 82.7599 234.697 82.419C234.233 82.0781 233.66 81.9077 232.978 81.9077C232.268 81.9077 231.676 82.0876 231.203 82.4474C230.734 82.8073 230.381 83.2902 230.145 83.8963C229.913 84.5024 229.797 85.1747 229.797 85.9134C229.797 86.6709 229.915 87.3409 230.152 87.9233C230.393 88.5009 230.748 88.9555 231.217 89.2869C231.69 89.6136 232.278 89.777 232.978 89.777ZM254.626 80.544C254.541 79.8243 254.195 79.2656 253.589 78.8679C252.983 78.4702 252.24 78.2713 251.359 78.2713C250.715 78.2713 250.152 78.3755 249.669 78.5838C249.19 78.7921 248.816 79.0786 248.547 79.4432C248.281 79.8078 248.149 80.2221 248.149 80.6861C248.149 81.0743 248.241 81.4081 248.426 81.6875C248.615 81.9621 248.857 82.1918 249.15 82.3764C249.444 82.5563 249.752 82.7055 250.074 82.8239C250.395 82.9375 250.691 83.0298 250.961 83.1009L252.439 83.4986C252.817 83.598 253.239 83.7353 253.703 83.9105C254.172 84.0857 254.619 84.3248 255.045 84.6278C255.476 84.9261 255.831 85.3097 256.11 85.7784C256.39 86.2472 256.529 86.8224 256.529 87.5043C256.529 88.2902 256.324 89.0005 255.912 89.6349C255.504 90.2694 254.908 90.7737 254.122 91.1477C253.341 91.5218 252.391 91.7088 251.274 91.7088C250.232 91.7088 249.33 91.5407 248.568 91.2045C247.81 90.8684 247.214 90.3996 246.778 89.7983C246.347 89.197 246.103 88.4986 246.047 87.7031H247.865C247.912 88.2524 248.097 88.7069 248.419 89.0668C248.745 89.4219 249.157 89.687 249.654 89.8622C250.156 90.0327 250.696 90.1179 251.274 90.1179C251.946 90.1179 252.55 90.009 253.085 89.7912C253.62 89.5687 254.044 89.2609 254.356 88.8679C254.669 88.4702 254.825 88.0062 254.825 87.4759C254.825 86.9929 254.69 86.5999 254.42 86.2969C254.15 85.9938 253.795 85.7476 253.355 85.5582C252.914 85.3688 252.439 85.2031 251.927 85.0611L250.137 84.5497C249.001 84.223 248.101 83.7566 247.439 83.1506C246.776 82.5445 246.444 81.7514 246.444 80.7713C246.444 79.9569 246.664 79.2467 247.105 78.6406C247.55 78.0298 248.146 77.5563 248.895 77.2202C249.647 76.8793 250.488 76.7088 251.416 76.7088C252.353 76.7088 253.187 76.8769 253.916 77.2131C254.645 77.5445 255.223 77.9991 255.649 78.5767C256.08 79.1544 256.307 79.8101 256.331 80.544H254.626ZM263.772 91.6804C262.721 91.6804 261.814 91.4484 261.052 90.9844C260.294 90.5156 259.71 89.8622 259.298 89.0241C258.89 88.1813 258.687 87.2012 258.687 86.0838C258.687 84.9664 258.89 83.9815 259.298 83.1293C259.71 82.2723 260.282 81.6046 261.016 81.1264C261.755 80.6435 262.617 80.402 263.602 80.402C264.17 80.402 264.731 80.4967 265.285 80.6861C265.839 80.8755 266.343 81.1832 266.798 81.6094C267.252 82.0308 267.614 82.5895 267.884 83.2855C268.154 83.9815 268.289 84.8385 268.289 85.8565V86.5668H259.88V85.1179H266.585C266.585 84.5024 266.461 83.9531 266.215 83.4702C265.974 82.9872 265.628 82.6061 265.178 82.3267C264.733 82.0473 264.208 81.9077 263.602 81.9077C262.934 81.9077 262.356 82.0734 261.869 82.4048C261.386 82.7315 261.014 83.1577 260.754 83.6832C260.493 84.2088 260.363 84.7723 260.363 85.3736V86.3395C260.363 87.1634 260.505 87.8617 260.789 88.4347C261.078 89.0028 261.478 89.4361 261.989 89.7344C262.501 90.0279 263.095 90.1747 263.772 90.1747C264.212 90.1747 264.61 90.1132 264.965 89.9901C265.325 89.8622 265.635 89.6728 265.896 89.4219C266.156 89.1662 266.357 88.849 266.499 88.4702L268.119 88.9247C267.948 89.474 267.662 89.9569 267.259 90.3736C266.857 90.7855 266.36 91.1075 265.768 91.3395C265.176 91.5668 264.511 91.6804 263.772 91.6804ZM270.839 91.4531V80.544H272.458V82.1918H272.572C272.771 81.652 273.13 81.214 273.651 80.8778C274.172 80.5417 274.759 80.3736 275.413 80.3736C275.536 80.3736 275.69 80.3759 275.874 80.3807C276.059 80.3854 276.199 80.3925 276.293 80.402V82.1065C276.237 82.0923 276.106 82.071 275.903 82.0426C275.704 82.0095 275.493 81.9929 275.271 81.9929C274.74 81.9929 274.267 82.1042 273.85 82.3267C273.438 82.5445 273.112 82.8475 272.87 83.2358C272.633 83.6193 272.515 84.0573 272.515 84.5497V91.4531H270.839ZM287.533 80.544L283.499 91.4531H281.794L277.76 80.544H279.578L282.589 89.2372H282.703L285.714 80.544H287.533ZM289.745 91.4531V80.544H291.421V91.4531H289.745ZM290.597 78.7259C290.271 78.7259 289.989 78.6146 289.752 78.392C289.52 78.1695 289.404 77.902 289.404 77.5895C289.404 77.277 289.52 77.0095 289.752 76.7869C289.989 76.5644 290.271 76.4531 290.597 76.4531C290.924 76.4531 291.203 76.5644 291.435 76.7869C291.672 77.0095 291.79 77.277 291.79 77.5895C291.79 77.902 291.672 78.1695 291.435 78.392C291.203 78.6146 290.924 78.7259 290.597 78.7259ZM298.923 91.6804C297.9 91.6804 297.02 91.4389 296.281 90.956C295.542 90.473 294.974 89.8078 294.576 88.9602C294.179 88.1127 293.98 87.1444 293.98 86.0554C293.98 84.9474 294.183 83.9697 294.591 83.1222C295.002 82.2699 295.575 81.6046 296.309 81.1264C297.048 80.6435 297.91 80.402 298.895 80.402C299.662 80.402 300.353 80.544 300.968 80.8281C301.584 81.1122 302.088 81.5099 302.481 82.0213C302.874 82.5327 303.118 83.1293 303.213 83.8111H301.537C301.409 83.3139 301.125 82.8736 300.684 82.4901C300.249 82.1018 299.662 81.9077 298.923 81.9077C298.27 81.9077 297.697 82.0781 297.204 82.419C296.717 82.7552 296.335 83.2311 296.061 83.8466C295.791 84.4574 295.656 85.1747 295.656 85.9986C295.656 86.8414 295.788 87.5753 296.054 88.2003C296.324 88.8253 296.702 89.3106 297.19 89.6562C297.682 90.0019 298.26 90.1747 298.923 90.1747C299.359 90.1747 299.754 90.099 300.109 89.9474C300.464 89.7959 300.765 89.5781 301.011 89.294C301.257 89.0099 301.432 88.669 301.537 88.2713H303.213C303.118 88.9152 302.884 89.4953 302.51 90.0114C302.14 90.5227 301.65 90.9299 301.039 91.233C300.433 91.5312 299.728 91.6804 298.923 91.6804ZM310.237 91.6804C309.186 91.6804 308.279 91.4484 307.517 90.9844C306.759 90.5156 306.174 89.8622 305.762 89.0241C305.355 88.1813 305.152 87.2012 305.152 86.0838C305.152 84.9664 305.355 83.9815 305.762 83.1293C306.174 82.2723 306.747 81.6046 307.481 81.1264C308.22 80.6435 309.082 80.402 310.066 80.402C310.635 80.402 311.196 80.4967 311.75 80.6861C312.304 80.8755 312.808 81.1832 313.262 81.6094C313.717 82.0308 314.079 82.5895 314.349 83.2855C314.619 83.9815 314.754 84.8385 314.754 85.8565V86.5668H306.345V85.1179H313.049C313.049 84.5024 312.926 83.9531 312.68 83.4702C312.439 82.9872 312.093 82.6061 311.643 82.3267C311.198 82.0473 310.672 81.9077 310.066 81.9077C309.399 81.9077 308.821 82.0734 308.333 82.4048C307.85 82.7315 307.479 83.1577 307.218 83.6832C306.958 84.2088 306.828 84.7723 306.828 85.3736V86.3395C306.828 87.1634 306.97 87.8617 307.254 88.4347C307.543 89.0028 307.943 89.4361 308.454 89.7344C308.966 90.0279 309.56 90.1747 310.237 90.1747C310.677 90.1747 311.075 90.1132 311.43 89.9901C311.79 89.8622 312.1 89.6728 312.36 89.4219C312.621 89.1662 312.822 88.849 312.964 88.4702L314.583 88.9247C314.413 89.474 314.127 89.9569 313.724 90.3736C313.322 90.7855 312.824 91.1075 312.233 91.3395C311.641 91.5668 310.975 91.6804 310.237 91.6804ZM325.031 82.9872L323.525 83.4134C323.431 83.1624 323.291 82.9186 323.106 82.6818C322.926 82.4403 322.68 82.2415 322.368 82.0852C322.055 81.929 321.655 81.8509 321.167 81.8509C320.5 81.8509 319.943 82.0047 319.498 82.3125C319.058 82.6155 318.838 83.0014 318.838 83.4702C318.838 83.8868 318.989 84.2159 319.292 84.4574C319.595 84.6989 320.069 84.9001 320.713 85.0611L322.332 85.4588C323.307 85.6955 324.034 86.0578 324.512 86.5455C324.991 87.0284 325.23 87.651 325.23 88.4134C325.23 89.0384 325.05 89.5971 324.69 90.0895C324.335 90.5819 323.838 90.9702 323.199 91.2543C322.559 91.5384 321.816 91.6804 320.968 91.6804C319.856 91.6804 318.935 91.4389 318.206 90.956C317.476 90.473 317.015 89.7675 316.821 88.8395L318.412 88.4418C318.563 89.0289 318.85 89.4692 319.271 89.7628C319.697 90.0563 320.253 90.2031 320.94 90.2031C321.721 90.2031 322.342 90.0374 322.801 89.706C323.265 89.3698 323.497 88.9673 323.497 88.4986C323.497 88.1198 323.364 87.8026 323.099 87.5469C322.834 87.2865 322.427 87.0923 321.877 86.9645L320.059 86.5384C319.06 86.3016 318.326 85.9347 317.858 85.4375C317.394 84.9356 317.162 84.3082 317.162 83.5554C317.162 82.9399 317.334 82.3954 317.68 81.9219C318.03 81.4484 318.506 81.0767 319.108 80.8068C319.714 80.5369 320.4 80.402 321.167 80.402C322.247 80.402 323.094 80.6387 323.71 81.1122C324.33 81.5857 324.77 82.2107 325.031 82.9872Z" fill="white"/>
<defs>
<filter id="filter0_d_55_84" x="19.2812" y="32.6406" width="65.3906" height="41.9062" filterUnits="userSpaceOnUse" color-interpolation-filters="sRGB">
<feFlood flood-opacity="0" result="BackgroundImageFix"/>
<feColorMatrix in="SourceAlpha" type="matrix" values="0 0 0 0 0 0 0 0 0 0 0 0 0 0 0 0 0 0 127 0" result="hardAlpha"/>
<feOffset dy="4"/>
<feGaussianBlur stdDeviation="2"/>
<feComposite in2="hardAlpha" operator="out"/>
<feColorMatrix type="matrix" values="0 0 0 0 0 0 0 0 0 0 0 0 0 0 0 0 0 0 0.25 0"/>
<feBlend mode="normal" in2="BackgroundImageFix" result="effect1_dropShadow_55_84"/>
<feBlend mode="normal" in="SourceGraphic" in2="effect1_dropShadow_55_84" result="shape"/>
</filter>
</defs>
</svg>
